<?xml version="1.0" standalone="no"?>
<!DOCTYPE svg PUBLIC "-//W3C//DTD SVG 20010904//EN"
 "http://www.w3.org/TR/2001/REC-SVG-20010904/DTD/svg10.dtd">
<svg version="1.0" xmlns="http://www.w3.org/2000/svg"
 width="700.000000pt" height="700.000000pt" viewBox="0 0 700.000000 700.000000"
 preserveAspectRatio="xMidYMid meet">
<metadata>
Created by potrace 1.14, written by Peter Selinger 2001-2017
</metadata>
<g transform="translate(0.000000,700.000000) scale(0.100000,-0.100000)"
fill="#000000" stroke="none">
<path d="M1702 5709 l-301 -301 -191 191 c-105 105 -195 191 -200 191 -4 0
-20 -14 -35 -32 l-26 -31 168 -168 c92 -92 179 -179 192 -193 l24 -26 -529
-530 c-291 -292 -531 -533 -534 -536 -2 -2 360 -369 805 -814 l810 -810 -650
-650 c-358 -358 -651 -654 -653 -658 -1 -4 11 -21 28 -37 l31 -29 652 652
c359 359 657 652 662 652 6 0 49 38 95 85 l85 85 0 97 0 98 -662 662 -663 663
399 399 399 399 43 -43 c24 -23 57 -56 73 -73 l29 -31 -322 -321 c-176 -177
-321 -326 -321 -330 0 -5 271 -279 601 -610 l602 -601 -7 -187 c-3 -103 -6
-288 -7 -411 l0 -225 598 -598 c329 -329 600 -598 603 -598 3 0 354 349 780
775 l775 775 109 0 110 0 49 -51 c27 -29 73 -62 105 -77 49 -23 70 -27 152
-27 116 1 169 22 247 102 86 87 116 201 86 323 -27 112 -83 180 -189 231 -118
57 -265 40 -367 -44 l-45 -37 -191 0 -191 0 -710 -710 c-390 -390 -714 -710
-720 -710 -5 0 -254 244 -552 542 l-543 543 -1 213 -1 213 -579 579 c-318 319
-580 583 -581 587 -2 5 141 152 317 328 176 176 320 323 320 327 0 4 -45 52
-100 107 -55 55 -100 102 -100 105 0 9 319 326 328 326 4 0 362 -355 797 -790
l789 -789 2 -63 c4 -169 129 -310 296 -336 241 -36 444 184 391 423 -25 108
-94 192 -201 241 -49 23 -69 27 -147 26 l-90 0 -918 919 c-506 505 -920 919
-922 919 -1 0 -138 -135 -303 -301z m2336 -1698 c151 -77 149 -297 -3 -371
-167 -81 -348 79 -289 254 41 119 180 174 292 117z m1629 -1044 c66 -34 112
-101 117 -169 12 -166 -156 -281 -302 -206 -162 83 -143 324 30 384 42 14 118
10 155 -9z"/>
<path d="M4541 5558 l-452 -453 -92 0 c-84 0 -98 -3 -159 -33 -77 -38 -130
-92 -166 -171 -22 -46 -26 -71 -27 -141 0 -77 3 -92 33 -152 37 -77 90 -128
172 -167 46 -22 69 -26 140 -26 76 0 93 4 152 33 117 57 185 160 195 295 l5
72 322 322 c176 178 324 323 328 323 9 0 388 -377 388 -385 0 -3 -45 -49 -100
-103 -55 -54 -100 -102 -100 -107 0 -6 131 -140 290 -299 160 -159 290 -292
290 -295 0 -11 -2249 -2256 -2260 -2256 -6 0 -102 92 -215 204 l-205 205 0
142 0 142 33 7 c132 29 246 155 265 293 15 111 -20 215 -100 295 -109 109
-272 133 -414 59 -58 -29 -136 -120 -159 -184 -26 -73 -24 -174 5 -253 37 -97
148 -191 250 -211 l28 -6 -2 -160 -1 -161 257 -258 258 -258 1199 1200 1200
1199 -295 294 c-161 162 -294 297 -294 300 0 2 32 36 71 75 l71 70 181 -182
c100 -100 266 -267 370 -369 l187 -188 -356 -356 -356 -356 128 -125 c71 -69
138 -132 149 -139 11 -8 173 -166 360 -352 l340 -338 32 33 32 32 -346 346
-346 347 454 454 453 453 -24 26 c-14 14 -239 241 -502 503 -263 262 -478 481
-478 485 0 5 61 69 135 143 74 74 135 139 135 143 0 4 -13 20 -30 36 l-30 29
-142 -142 -142 -141 -317 317 c-174 174 -323 323 -331 330 -13 10 -86 -59
-467 -440z m-486 -599 c77 -22 145 -115 145 -199 0 -144 -156 -250 -288 -194
-76 31 -118 89 -128 177 -5 46 -3 64 16 101 48 100 147 145 255 115z m-944
-1707 c43 -17 91 -64 111 -110 77 -173 -94 -349 -269 -277 -45 18 -98 70 -114
112 -64 170 103 340 272 275z"/>
</g>
</svg>
